<?xml version="1.0" encoding="iso-8859-1"?>
<!-- Generator: Adobe Illustrator 16.0.4, SVG Export Plug-In . SVG Version: 6.00 Build 0)  -->
<!DOCTYPE svg PUBLIC "-//W3C//DTD SVG 1.1//EN" "http://www.w3.org/Graphics/SVG/1.1/DTD/svg11.dtd">
<svg version="1.1" xmlns="http://www.w3.org/2000/svg" xmlns:xlink="http://www.w3.org/1999/xlink" x="0px" y="0px" width="400px"
	 height="400px" viewBox="0 0 400 400" style="enable-background:new 0 0 400 400;" xml:space="preserve">
<g id="Layer_1_1_">
	<g>
		<defs>
			<rect id="SVGID_1_" width="400" height="400"/>
		</defs>
		<clipPath id="SVGID_2_">
			<use xlink:href="#SVGID_1_"  style="overflow:visible;"/>
		</clipPath>
		<path style="clip-path:url(#SVGID_2_);fill:#EAA824;" d="M200,0C89.543,0,0,89.543,0,200s89.543,200,200,200s200-89.543,200-200
			S310.457,0,200,0 M218.335,293.697v23.318h-33.362V296.16c-16.013-1.37-37.157-7.175-52.738-15.757l11.039-38.45
			c17.643,6.882,43.383,15.535,62.417,11.38c16.649-3.631,20.846-18.58,1.251-27.024c-16.552-7.433-73.509-15.202-73.509-62.837
			c0-19.734,14.791-46.857,51.54-54.878V84.928h33.362v21.717c14.298,0.982,28.882,3.622,45.724,8.889
			c-1.685,7.358-8.965,39.293-8.965,39.293c-11.63-3.957-30.64-10.877-48.89-9.85c-22.551,1.268-24.166,17.736-8.963,25.338
			c31.185,14.102,76.352,26.096,76.352,68.156C273.635,270.972,248.313,289.482,218.335,293.697"/>
	</g>
</g>
<g id="Layer_1">
</g>
</svg>
