<?xml version="1.0" encoding="utf-8"?>
<!-- Generator: Adobe Illustrator 17.1.0, SVG Export Plug-In . SVG Version: 6.00 Build 0)  -->
<!DOCTYPE svg PUBLIC "-//W3C//DTD SVG 1.1//EN" "http://www.w3.org/Graphics/SVG/1.1/DTD/svg11.dtd">
<svg version="1.1" id="Layer_1" xmlns="http://www.w3.org/2000/svg" xmlns:xlink="http://www.w3.org/1999/xlink" x="0px" y="0px"
	 viewBox="0 0 186.7 61.7" enable-background="new 0 0 186.7 61.7" xml:space="preserve">
<g>
	<path fill="#472F91" d="M97.8,37.5c4.9-15.7,14.9-23.4,30.3-23c6,0.2,8.9,0.9,10.5,1.2l-3.8,12.9c-1.4-0.3-4-0.8-8.9-1
		c-5.2-0.1-8.3,1.9-10.9,10.3c-2.6,8.4-0.9,10.5,4.5,10.7c3.9,0.1,7.6-0.2,9.5-0.4l-3.9,13.1c-1.7,0.3-6.6,0.5-11.9,0.3
		C97.7,61.2,93,53.2,97.8,37.5 M78.6,24.9c-3.5,0-4.2,0-4.2,0L72,33.2h4.3c4,0,5.5-0.5,6.6-4.1C83.9,25.4,82.2,24.9,78.6,24.9
		 M84.9,15.1c13.1,0.4,14.7,6.5,13.4,13.5c-1.3,7.5-6.7,10.8-11.8,12.7c1.6,1,2.6,2.7,2.9,6l1.4,13.9H73.9l-0.6-15.1
		c0-2.1-0.8-3.1-2.9-3.2c0.1,0-1.4,0-1.4,0l-5.5,18.3H47.2l12.7-42.6c0,0,0.8-3.6,5.1-3.6L84.9,15.1 M176,15.1
		c-4.3,0-5.1,3.6-5.1,3.6l-6,20l-3.2-23.6l-14.9,0c-4.3,0-5.1,3.6-5.1,3.6l-12.7,42.6h16.2l7.4-24.7l3.2,24.7h17.2l13.8-46.2
		L176,15.1z M179,59.6c0-1.1-0.9-2.1-2.1-2.1c-1.1,0-2.1,0.9-2.1,2.1c0,1.1,0.9,2.1,2.1,2.1C178.1,61.7,179,60.7,179,59.6
		 M178.7,59.6c0,1-0.8,1.8-1.8,1.8c-1,0-1.8-0.8-1.8-1.8c0-1,0.8-1.8,1.8-1.8C178,57.8,178.7,58.6,178.7,59.6 M177.9,60.8l-0.6-0.9
		c0.1,0,0.6-0.2,0.6-0.7c0-0.4-0.4-0.7-0.8-0.7h-1v2.4h0.3v-0.9h0.4l0.6,0.9H177.9z M177.6,59.2c0,0.2-0.2,0.4-0.4,0.4h-0.6v-0.9
		h0.6C177.4,58.7,177.6,58.9,177.6,59.2"/>
	<path fill="#37B34A" d="M53.5,22c-4.1-2.1-8.9-3.3-14.5-3.4c-9.3-0.1-18.6,0.5-30.4,6.7c-2.6,1.4-5.1,3.1-6.8,5.5
		c-3.4,4.6-1.6,10,2.4,12.1C12.6,41.6,47.2,26.9,53.5,22"/>
	<path fill="#472F91" d="M39,17c4.6,0,8.7,0.8,12.5,2.3c-0.5-0.6-1.1-1.2-1.8-1.9C44,11.5,34.7,1.9,22.6,0.2
		C10.5-1.4,0.2,5.5,7.4,21.1c0.4,0.8,0.8,1.6,1.2,2.4c11.7-6,21.1-6.5,29.1-6.5C38.1,17,38.6,17,39,17"/>
</g>
<g>
</g>
<g>
</g>
<g>
</g>
<g>
</g>
<g>
</g>
<g>
</g>
<g>
</g>
<g>
</g>
<g>
</g>
<g>
</g>
<g>
</g>
<g>
</g>
<g>
</g>
<g>
</g>
<g>
</g>
</svg>
