<svg xmlns="http://www.w3.org/2000/svg" height="48" width="48" viewBox="0 0 48 48.000004"><defs><filter id="b" color-interpolation-filters="sRGB"><feFlood result="flood" flood-opacity=".1" flood-color="#000"/><feComposite operator="in" result="composite1" in2="SourceGraphic" in="flood"/><feGaussianBlur stdDeviation="4" result="blur" in="composite1"/><feOffset result="offset" dx="4" dy="4"/><feComposite result="composite2" in2="offset" in="SourceGraphic"/></filter><linearGradient id="a" y2="9.026" gradientUnits="userSpaceOnUse" x2="-7.425" gradientTransform="scale(1 .9948)" y1="184.39" x1="-187.05"><stop stop-color="#48ac4b" offset="0"/><stop stop-color="#76be53" offset="1"/></linearGradient></defs><g transform="scale(.25)"><rect rx="12" ry="12" height="192" width="192" fill="#0d8734"/><rect rx="12" transform="scale(-1 1)" ry="12" width="192" x="-192" height="191" fill="url(#a)"/><path d="M74.1 20.887c-4.354 0-7.96 1.49-11.027 4.557-3.064 3.065-4.555 6.67-4.555 11.025 0 4.194 1.4 7.69 4.242 10.68l-.013.003.18.18c.053.054.096.11.148.16.06.06.122.11.182.17l12.328 12.334L40.01 60 40 108l8 8v8l-7.984-.01L40 172.02 59.982 192h120.02c6.648 0 12-5.35 12-12V88.54L129.16 25.698c-.08-.083-.15-.17-.232-.254-.076-.075-.157-.137-.233-.21-3.016-2.915-6.546-4.346-10.793-4.346-5.004 0-8.816 1.74-11.658 5.326l-10.24 13.202L85.746 26.19c-2.83-3.57-6.64-5.306-11.643-5.306z" fill-rule="evenodd" fill-opacity=".08"/><g fill-opacity=".2"><path d="M40 59v1h48v-1H40zm64 0v1h48v-1h-48zm-16 8v1h16v-1H88zM48 99v1h32v-1H48zm64 0v1h32v-1h-32zm-72 24v1h8v-1h-8zm16 0v1h32v-1H56zm48 0v1h32v-1h-32zm40 0v1h8v-1h-8zm-56 32v1h16v-1H88zm-40 8v1h32v-1H48zm64 0v1h32v-1h-32z" fill="#fff"/><path d="M48 68v1h32v-1H48zm64 0v1h32v-1h-32zm-24 8v1h16v-1H88zm-48 32v1h8v-1h-8zm16 0v1h32v-1H56zm48 0v1h32v-1h-32zm40 0v1h8v-1h-8zm-96 24v1h32v-1H48zm64 0v1h32v-1h-32zm-24 32v1h16v-1H88zm-48 8v1h48v-1H40zm64 0v1h48v-1h-48zM74.1 28.373c-2.237 0-4.166.796-5.732 2.363-1.57 1.568-2.364 3.496-2.364 5.733 0 .175.014.346.024.518.115-2.014.895-3.767 2.34-5.21 1.566-1.568 3.495-2.362 5.732-2.362 2.417 0 4.39.89 5.89 2.674l9.756 12.473h.817L79.99 31.047c-1.5-1.783-3.472-2.674-5.89-2.674zm43.8 0c-2.418 0-4.39.892-5.864 2.648l-10.514 13.542h.81l9.703-12.5c1.474-1.756 3.446-2.646 5.866-2.646 2.236 0 4.165.794 5.73 2.36 1.446 1.446 2.225 3.198 2.34 5.212.01-.172.024-.343.024-.52 0-2.236-.794-4.165-2.363-5.734-1.565-1.567-3.494-2.36-5.73-2.36zm-59.358 8.615c-.005.175-.023.344-.023.522 0 4.354 1.49 7.96 4.555 11.025C65.7 51.16 68.712 52.62 72.358 53h47.326l.04-.004c3.563-.376 6.573-1.835 9.203-4.46 3.066-3.068 4.556-6.674 4.556-11.026 0-.178-.018-.347-.023-.522-.117 4.118-1.592 7.564-4.533 10.506-2.63 2.627-5.64 4.086-9.204 4.46l-.04.005H72.36c-3.646-.38-6.657-1.84-9.283-4.466-2.94-2.94-4.417-6.386-4.533-10.506z"/></g><g fill="#fff"><path d="M74.1 19.928c-4.354 0-7.96 1.49-11.027 4.557-3.064 3.065-4.555 6.67-4.555 11.025 0 .163.018.317.022.478.108-4.137 1.584-7.595 4.533-10.545 3.066-3.065 6.674-4.556 11.027-4.556 5.002 0 8.813 1.736 11.643 5.306L96 39.417l10.24-13.205c2.843-3.586 6.655-5.326 11.66-5.326 4.352 0 7.958 1.49 11.024 4.557 2.95 2.95 4.427 6.41 4.535 10.545.003-.16.02-.316.02-.48 0-4.35-1.49-7.958-4.556-11.024-3.066-3.065-6.672-4.557-11.025-4.557-5.005 0-8.817 1.742-11.66 5.328L96 38.458 85.744 25.233c-2.83-3.57-6.64-5.306-11.643-5.306zm-8.074 16.06c-.01.16-.022.32-.022.48 0 2.238.795 4.166 2.364 5.734 1.566 1.567 3.497 2.36 5.732 2.36h16.463l-.748-.956H74.1c-2.235 0-4.166-.796-5.732-2.363-1.455-1.454-2.235-3.222-2.342-5.254zm59.947 0c-.107 2.034-.887 3.8-2.342 5.255-1.565 1.567-3.494 2.363-5.73 2.363h-15.637l-.742.957h16.38c2.236 0 4.164-.794 5.73-2.36 1.57-1.57 2.364-3.497 2.364-5.733 0-.163-.013-.32-.02-.48z" fill-opacity=".2"/><path d="M40 60v48h8v16h-8v48h48v-8h16v8h48v-48h-8v-16h8V60h-48v8H88v-8H40zm8 8h32v32H48V68zm64 0h32v32h-32V68zm-24 8h16v32h32v16h-32v32H88v-32H56v-16h32V76zm-40 56h32v32H48v-32zm64 0h32v32h-32v-32zM128.93 25.443c-3.066-3.065-6.672-4.556-11.026-4.556-5.004 0-8.816 1.74-11.658 5.327l-10.25 13.204-10.258-13.224c-2.83-3.57-6.64-5.307-11.642-5.307-4.354 0-7.96 1.49-11.028 4.556-3.064 3.065-4.554 6.67-4.554 11.025s1.49 7.96 4.556 11.026c2.625 2.626 5.637 4.086 9.283 4.465h47.326l.04-.005c3.563-.375 6.572-1.834 9.202-4.46 3.066-3.067 4.555-6.674 4.555-11.027 0-4.352-1.49-7.96-4.555-11.025zm-38.364 19.12H74.104c-2.235 0-4.166-.794-5.732-2.362-1.569-1.566-2.363-3.494-2.363-5.73 0-2.237.793-4.166 2.362-5.733 1.566-1.567 3.495-2.363 5.732-2.363 2.417 0 4.39.892 5.888 2.674l10.575 13.516zm10.96 0l10.513-13.54c1.473-1.757 3.445-2.65 5.864-2.65 2.236 0 4.164.795 5.73 2.363 1.57 1.568 2.363 3.496 2.363 5.733 0 2.235-.794 4.163-2.362 5.73-1.567 1.568-3.495 2.364-5.73 2.364h-16.38z" filter="url(#b)"/></g></g></svg>